<svg width="64" height="64" viewBox="0 0 64 64" xmlns="http://www.w3.org/2000/svg" role="img" aria-label="Plume Notes">
  <defs>
    <linearGradient id="plume-bg" x1="0" y1="0" x2="64" y2="64" gradientUnits="userSpaceOnUse">
      <stop offset="0" stop-color="#38BDF8"/>
      <stop offset="0.55" stop-color="#0EA5E9"/>
      <stop offset="1" stop-color="#0C4A6E"/>
    </linearGradient>
    <linearGradient id="plume-fg" x1="0" y1="0" x2="0" y2="64" gradientUnits="userSpaceOnUse">
      <stop offset="0" stop-color="#FFFFFF"/>
      <stop offset="1" stop-color="#E0F2FE"/>
    </linearGradient>
  </defs>
  <rect width="64" height="64" rx="14" fill="url(#plume-bg)"/>
  <rect x="0.5" y="0.5" width="63" height="63" rx="13.5" fill="none" stroke="#FFFFFF" stroke-opacity="0.14"/>
  <path
    d="M 18.5 14
       L 18.5 49.5
       Q 18.5 53, 22 53
       Q 25.5 53, 25.5 49.5
       L 25.5 36.5
       L 33 36.5
       Q 47 36.5, 47 25.25
       Q 47 14, 33 14
       Z
       M 25.5 20.5
       L 33 20.5
       Q 39.5 20.5, 39.5 25.25
       Q 39.5 30, 33 30
       L 25.5 30
       Z"
    fill="url(#plume-fg)"
    fill-rule="evenodd"
  />
  <path
    d="M 22 53
       Q 14 53, 12 47"
    stroke="url(#plume-fg)"
    stroke-width="2.4"
    stroke-linecap="round"
    fill="none"
    opacity="0.85"
  />
  <circle cx="11.5" cy="46" r="1.8" fill="#FACC15"/>
</svg>
